<svg xmlns="http://www.w3.org/2000/svg" xmlns:xlink="http://www.w3.org/1999/xlink" width="500" zoomAndPan="magnify" viewBox="0 0 375 374.999991" height="500" preserveAspectRatio="xMidYMid meet" version="1.0"><defs><g/><clipPath id="61c9f4ca27"><path d="M 182 161 L 193 161 L 193 207.070312 L 182 207.070312 Z M 182 161 " clip-rule="nonzero"/></clipPath><clipPath id="dca8a0dfad"><path d="M 152 151 L 185 151 L 185 207.070312 L 152 207.070312 Z M 152 151 " clip-rule="nonzero"/></clipPath><clipPath id="b745268b05"><path d="M 190 151 L 222 151 L 222 207.070312 L 190 207.070312 Z M 190 151 " clip-rule="nonzero"/></clipPath><clipPath id="003cd61cbe"><path d="M 182 161 L 193 161 L 193 207.070312 L 182 207.070312 Z M 182 161 " clip-rule="nonzero"/></clipPath><clipPath id="c93c30146d"><path d="M 212 176 L 224.496094 176 L 224.496094 182 L 212 182 Z M 212 176 " clip-rule="nonzero"/></clipPath><clipPath id="adb0f8a6f3"><path d="M 150.246094 173 L 163 173 L 163 179 L 150.246094 179 Z M 150.246094 173 " clip-rule="nonzero"/></clipPath><clipPath id="52e5d0f313"><path d="M 150.246094 176 L 163 176 L 163 182 L 150.246094 182 Z M 150.246094 176 " clip-rule="nonzero"/></clipPath></defs><path fill="#f5faff" d="M 208.300781 142.855469 C 208.300781 154.960938 201.359375 168.046875 187.757812 168.046875 C 174.277344 168.046875 167.136719 154.960938 167.136719 142.855469 C 167.136719 130.75 175.726562 120.9375 187.757812 120.9375 C 199.789062 120.9375 208.300781 130.75 208.300781 142.855469 Z M 208.300781 142.855469 " fill-opacity="1" fill-rule="nonzero"/><path fill="#000000" d="M 187.757812 168.898438 C 173.8125 168.898438 166.289062 155.480469 166.289062 142.855469 C 166.289062 136.707031 168.425781 130.996094 172.3125 126.777344 C 176.285156 122.460938 181.769531 120.085938 187.757812 120.085938 C 199.953125 120.085938 209.148438 129.871094 209.148438 142.855469 C 209.148438 149.339844 207.207031 155.769531 203.816406 160.488281 C 199.867188 165.988281 194.3125 168.898438 187.757812 168.898438 Z M 187.757812 121.789062 C 176.484375 121.789062 167.984375 130.84375 167.984375 142.855469 C 167.984375 154.652344 174.914062 167.191406 187.757812 167.191406 C 200.6875 167.191406 207.457031 154.949219 207.457031 142.855469 C 207.457031 130.84375 198.988281 121.789062 187.757812 121.789062 Z M 187.757812 121.789062 " fill-opacity="1" fill-rule="nonzero"/><path fill="#f5faff" d="M 207.941406 138.605469 C 195.171875 143.199219 182.25 130.839844 182.25 130.839844 C 181.871094 140.523438 171.0625 141.1875 171.0625 141.1875 L 171.253906 147.8125 L 168.304688 151.359375 C 168.304688 151.359375 161.730469 131.984375 179.210938 122.773438 C 179.210938 122.773438 194.117188 115.574219 204.363281 129.652344 C 206.820312 133.027344 207.941406 138.605469 207.941406 138.605469 Z M 207.941406 138.605469 " fill-opacity="1" fill-rule="nonzero"/><path fill="#000000" d="M 168.308594 152.210938 C 168.253906 152.210938 168.203125 152.207031 168.152344 152.199219 C 167.851562 152.140625 167.605469 151.925781 167.503906 151.636719 C 167.4375 151.429688 165.808594 146.550781 166.359375 140.445312 C 166.871094 134.761719 169.449219 126.957031 178.816406 122.019531 C 179.003906 121.925781 182.886719 120.078125 188.113281 120.078125 C 192.828125 120.078125 199.589844 121.652344 205.046875 129.148438 C 207.582031 132.636719 208.726562 138.199219 208.773438 138.4375 C 208.855469 138.851562 208.625 139.265625 208.226562 139.40625 C 206.246094 140.121094 204.144531 140.480469 201.976562 140.480469 C 193.402344 140.480469 185.832031 134.976562 182.921875 132.558594 C 181.667969 139.832031 174.398438 141.558594 171.933594 141.9375 L 172.101562 147.785156 C 172.109375 147.992188 172.039062 148.195312 171.90625 148.355469 L 168.957031 151.90625 C 168.792969 152.101562 168.554688 152.210938 168.308594 152.210938 Z M 188.113281 121.785156 C 183.269531 121.785156 179.613281 123.523438 179.574219 123.542969 C 172.644531 127.195312 168.757812 132.917969 168.050781 140.539062 C 167.699219 144.34375 168.269531 147.703125 168.699219 149.558594 L 170.398438 147.511719 L 170.214844 141.210938 C 170.203125 140.75 170.554688 140.363281 171.011719 140.335938 C 171.421875 140.308594 181.058594 139.589844 181.402344 130.804688 C 181.417969 130.472656 181.625 130.175781 181.929688 130.050781 C 182.238281 129.921875 182.59375 129.992188 182.832031 130.21875 C 182.921875 130.304688 191.910156 138.777344 201.976562 138.777344 C 203.691406 138.777344 205.359375 138.53125 206.941406 138.042969 C 206.554688 136.453125 205.484375 132.636719 203.679688 130.15625 C 199.636719 124.601562 194.398438 121.785156 188.113281 121.785156 Z M 188.113281 121.785156 " fill-opacity="1" fill-rule="nonzero"/><path fill="#f5faff" d="M 160.273438 159.117188 L 160.273438 144.488281 C 160.273438 144.488281 180.636719 147.359375 187.351562 162.398438 L 187.351562 164.867188 L 160.273438 164.867188 Z M 160.273438 159.117188 " fill-opacity="1" fill-rule="nonzero"/><path fill="#000000" d="M 187.351562 165.71875 L 160.273438 165.71875 C 159.804688 165.71875 159.425781 165.339844 159.425781 164.867188 L 159.425781 144.488281 C 159.425781 144.242188 159.53125 144.007812 159.71875 143.84375 C 159.902344 143.683594 160.148438 143.609375 160.390625 143.644531 C 161.242188 143.765625 181.296875 146.757812 188.125 162.050781 C 188.175781 162.160156 188.199219 162.277344 188.199219 162.398438 L 188.199219 164.867188 C 188.199219 165.339844 187.820312 165.71875 187.351562 165.71875 Z M 161.121094 164.015625 L 186.507812 164.015625 L 186.507812 162.582031 C 180.816406 150.117188 165.167969 146.296875 161.121094 145.503906 Z M 161.121094 164.015625 " fill-opacity="1" fill-rule="nonzero"/><path fill="#f5faff" d="M 214.433594 159.117188 L 214.433594 144.488281 C 214.433594 144.488281 194.070312 147.359375 187.351562 162.398438 L 187.351562 164.867188 L 214.433594 164.867188 Z M 214.433594 159.117188 " fill-opacity="1" fill-rule="nonzero"/><path fill="#000000" d="M 214.433594 165.71875 L 187.351562 165.71875 C 186.886719 165.71875 186.507812 165.339844 186.507812 164.867188 L 186.507812 162.398438 C 186.507812 162.277344 186.53125 162.160156 186.582031 162.050781 C 193.410156 146.757812 213.464844 143.765625 214.316406 143.644531 C 214.558594 143.609375 214.804688 143.683594 214.988281 143.847656 C 215.175781 144.007812 215.28125 144.242188 215.28125 144.488281 L 215.28125 164.867188 C 215.28125 165.339844 214.902344 165.71875 214.433594 165.71875 Z M 188.199219 164.015625 L 213.585938 164.015625 L 213.585938 145.503906 C 209.539062 146.300781 193.886719 150.128906 188.199219 162.582031 Z M 188.199219 164.015625 " fill-opacity="1" fill-rule="nonzero"/><path fill="#f5faff" d="M 157.515625 162.136719 L 157.515625 147.507812 C 157.515625 147.507812 179.90625 149.847656 187.292969 164.886719 L 187.292969 167.886719 L 157.515625 167.886719 Z M 157.515625 162.136719 " fill-opacity="1" fill-rule="nonzero"/><path fill="#000000" d="M 187.292969 168.738281 L 157.515625 168.738281 C 157.046875 168.738281 156.667969 168.359375 156.667969 167.886719 L 156.667969 147.507812 C 156.667969 147.265625 156.769531 147.035156 156.949219 146.875 C 157.128906 146.714844 157.363281 146.636719 157.605469 146.660156 C 158.535156 146.757812 180.546875 149.226562 188.050781 164.507812 C 188.109375 164.628906 188.140625 164.757812 188.140625 164.886719 L 188.140625 167.886719 C 188.140625 168.359375 187.757812 168.738281 187.292969 168.738281 Z M 158.363281 167.035156 L 186.445312 167.035156 L 186.445312 165.089844 C 180.125 152.515625 162.609375 149.128906 158.363281 148.484375 Z M 158.363281 167.035156 " fill-opacity="1" fill-rule="nonzero"/><path fill="#f5faff" d="M 217.066406 162.136719 L 217.066406 147.507812 C 217.066406 147.507812 194.675781 149.847656 187.292969 164.886719 L 187.292969 167.886719 L 217.066406 167.886719 Z M 217.066406 162.136719 " fill-opacity="1" fill-rule="nonzero"/><path fill="#000000" d="M 217.066406 168.738281 L 187.292969 168.738281 C 186.824219 168.738281 186.445312 168.359375 186.445312 167.886719 L 186.445312 164.886719 C 186.445312 164.757812 186.472656 164.625 186.53125 164.507812 C 194.039062 149.226562 216.046875 146.757812 216.980469 146.660156 C 217.21875 146.636719 217.457031 146.714844 217.632812 146.875 C 217.8125 147.039062 217.914062 147.265625 217.914062 147.507812 L 217.914062 167.886719 C 217.914062 168.359375 217.535156 168.738281 217.066406 168.738281 Z M 188.140625 167.035156 L 216.21875 167.035156 L 216.21875 148.484375 C 211.972656 149.128906 194.460938 152.515625 188.140625 165.089844 Z M 188.140625 167.035156 " fill-opacity="1" fill-rule="nonzero"/><path fill="#f5faff" d="M 183.347656 162.398438 L 191.234375 162.398438 L 191.234375 206.207031 L 183.347656 206.207031 Z M 183.347656 162.398438 " fill-opacity="1" fill-rule="nonzero"/><g clip-path="url(#61c9f4ca27)"><path fill="#000000" d="M 191.234375 207.058594 L 183.347656 207.058594 C 182.878906 207.058594 182.5 206.679688 182.5 206.207031 L 182.5 162.398438 C 182.5 161.925781 182.878906 161.546875 183.347656 161.546875 L 191.234375 161.546875 C 191.703125 161.546875 192.082031 161.925781 192.082031 162.398438 L 192.082031 206.207031 C 192.082031 206.679688 191.703125 207.058594 191.234375 207.058594 Z M 184.195312 205.355469 L 190.390625 205.355469 L 190.390625 163.25 L 184.195312 163.25 Z M 184.195312 205.355469 " fill-opacity="1" fill-rule="nonzero"/></g><path fill="#f5faff" d="M 153.558594 151.882812 L 183.347656 162.398438 L 183.347656 206.207031 L 153.558594 194.144531 Z M 153.558594 151.882812 " fill-opacity="1" fill-rule="nonzero"/><g clip-path="url(#dca8a0dfad)"><path fill="#000000" d="M 183.347656 207.058594 C 183.242188 207.058594 183.132812 207.039062 183.03125 206.996094 L 153.242188 194.933594 C 152.921875 194.804688 152.710938 194.492188 152.710938 194.144531 L 152.710938 151.882812 C 152.710938 151.605469 152.84375 151.347656 153.070312 151.1875 C 153.292969 151.027344 153.578125 150.988281 153.839844 151.078125 L 183.628906 161.59375 C 183.96875 161.714844 184.195312 162.035156 184.195312 162.398438 L 184.195312 206.207031 C 184.195312 206.492188 184.054688 206.753906 183.820312 206.914062 C 183.679688 207.011719 183.515625 207.058594 183.347656 207.058594 Z M 154.40625 193.570312 L 182.5 204.945312 L 182.5 163.003906 L 154.40625 153.085938 Z M 154.40625 193.570312 " fill-opacity="1" fill-rule="nonzero"/></g><path fill="#f5faff" d="M 221.023438 156.851562 L 221.023438 151.882812 L 191.234375 162.398438 L 191.234375 206.207031 L 221.023438 194.144531 L 221.023438 162.398438 " fill-opacity="1" fill-rule="nonzero"/><g clip-path="url(#b745268b05)"><path fill="#000000" d="M 191.234375 207.058594 C 191.070312 207.058594 190.902344 207.011719 190.761719 206.914062 C 190.527344 206.753906 190.390625 206.492188 190.390625 206.207031 L 190.390625 162.398438 C 190.390625 162.035156 190.617188 161.714844 190.957031 161.59375 L 220.746094 151.078125 C 221.003906 150.988281 221.289062 151.027344 221.515625 151.1875 C 221.738281 151.347656 221.871094 151.605469 221.871094 151.882812 L 221.871094 156.851562 C 221.871094 157.324219 221.492188 157.703125 221.023438 157.703125 C 220.554688 157.703125 220.175781 157.324219 220.175781 156.851562 L 220.175781 153.085938 L 192.082031 163.003906 L 192.082031 204.945312 L 220.175781 193.566406 L 220.175781 162.398438 C 220.175781 161.925781 220.554688 161.546875 221.023438 161.546875 C 221.492188 161.546875 221.871094 161.925781 221.871094 162.398438 L 221.871094 194.144531 C 221.871094 194.492188 221.660156 194.804688 221.339844 194.933594 L 191.550781 206.996094 C 191.449219 207.039062 191.34375 207.058594 191.234375 207.058594 Z M 191.234375 207.058594 " fill-opacity="1" fill-rule="nonzero"/></g><path fill="#f5faff" d="M 183.347656 162.398438 L 191.234375 162.398438 L 191.234375 206.207031 L 183.347656 206.207031 Z M 183.347656 162.398438 " fill-opacity="1" fill-rule="nonzero"/><g clip-path="url(#003cd61cbe)"><path fill="#000000" d="M 191.234375 207.058594 L 183.347656 207.058594 C 182.878906 207.058594 182.5 206.679688 182.5 206.207031 L 182.5 162.398438 C 182.5 161.925781 182.878906 161.546875 183.347656 161.546875 L 191.234375 161.546875 C 191.703125 161.546875 192.082031 161.925781 192.082031 162.398438 L 192.082031 206.207031 C 192.082031 206.679688 191.703125 207.058594 191.234375 207.058594 Z M 184.195312 205.355469 L 190.390625 205.355469 L 190.390625 163.25 L 184.195312 163.25 Z M 184.195312 205.355469 " fill-opacity="1" fill-rule="nonzero"/></g><path fill="#f5faff" d="M 222.542969 172.507812 C 222.542969 173.386719 221.835938 174.101562 220.960938 174.101562 L 213.867188 174.101562 C 212.992188 174.101562 212.285156 173.386719 212.285156 172.507812 C 212.285156 171.628906 212.992188 170.914062 213.867188 170.914062 L 220.960938 170.914062 C 221.835938 170.914062 222.542969 171.628906 222.542969 172.507812 Z M 222.542969 172.507812 " fill-opacity="1" fill-rule="nonzero"/><path fill="#000000" d="M 220.960938 174.953125 L 213.867188 174.953125 C 212.527344 174.953125 211.4375 173.855469 211.4375 172.507812 C 211.4375 171.160156 212.527344 170.0625 213.867188 170.0625 L 220.960938 170.0625 C 222.300781 170.0625 223.390625 171.160156 223.390625 172.507812 C 223.390625 173.855469 222.300781 174.953125 220.960938 174.953125 Z M 213.867188 171.765625 C 213.460938 171.765625 213.132812 172.101562 213.132812 172.507812 C 213.132812 172.917969 213.460938 173.25 213.867188 173.25 L 220.960938 173.25 C 221.367188 173.25 221.695312 172.917969 221.695312 172.507812 C 221.695312 172.101562 221.367188 171.765625 220.960938 171.765625 Z M 213.867188 171.765625 " fill-opacity="1" fill-rule="nonzero"/><path fill="#f5faff" d="M 223.152344 175.695312 C 223.152344 176.574219 222.445312 177.285156 221.570312 177.285156 L 214.476562 177.285156 C 213.601562 177.285156 212.894531 176.574219 212.894531 175.695312 C 212.894531 174.8125 213.601562 174.101562 214.476562 174.101562 L 221.570312 174.101562 C 222.445312 174.101562 223.152344 174.8125 223.152344 175.695312 Z M 223.152344 175.695312 " fill-opacity="1" fill-rule="nonzero"/><path fill="#000000" d="M 221.570312 178.140625 L 214.476562 178.140625 C 213.136719 178.140625 212.046875 177.042969 212.046875 175.695312 C 212.046875 174.34375 213.136719 173.25 214.476562 173.25 L 221.570312 173.25 C 222.910156 173.25 224 174.34375 224 175.695312 C 224 177.042969 222.910156 178.140625 221.570312 178.140625 Z M 214.476562 174.953125 C 214.070312 174.953125 213.742188 175.285156 213.742188 175.695312 C 213.742188 176.101562 214.070312 176.433594 214.476562 176.433594 L 221.570312 176.433594 C 221.976562 176.433594 222.304688 176.101562 222.304688 175.695312 C 222.304688 175.285156 221.976562 174.953125 221.570312 174.953125 Z M 214.476562 174.953125 " fill-opacity="1" fill-rule="nonzero"/><path fill="#f5faff" d="M 223.59375 178.878906 C 223.59375 179.757812 222.882812 180.472656 222.011719 180.472656 L 214.917969 180.472656 C 214.042969 180.472656 213.332031 179.757812 213.332031 178.878906 C 213.332031 178 214.042969 177.285156 214.917969 177.285156 L 222.011719 177.285156 C 222.882812 177.285156 223.59375 178 223.59375 178.878906 Z M 223.59375 178.878906 " fill-opacity="1" fill-rule="nonzero"/><g clip-path="url(#c93c30146d)"><path fill="#000000" d="M 222.011719 181.324219 L 214.917969 181.324219 C 213.574219 181.324219 212.484375 180.226562 212.484375 178.878906 C 212.484375 177.53125 213.574219 176.433594 214.917969 176.433594 L 222.011719 176.433594 C 223.351562 176.433594 224.441406 177.53125 224.441406 178.878906 C 224.441406 180.226562 223.351562 181.324219 222.011719 181.324219 Z M 214.917969 178.140625 C 214.511719 178.140625 214.179688 178.472656 214.179688 178.878906 C 214.179688 179.289062 214.511719 179.621094 214.917969 179.621094 L 222.011719 179.621094 C 222.417969 179.621094 222.746094 179.289062 222.746094 178.878906 C 222.746094 178.472656 222.414062 178.140625 222.011719 178.140625 Z M 214.917969 178.140625 " fill-opacity="1" fill-rule="nonzero"/></g><path fill="#f5faff" d="M 152.199219 172.507812 C 152.199219 173.386719 152.910156 174.101562 153.785156 174.101562 L 160.875 174.101562 C 161.75 174.101562 162.460938 173.386719 162.460938 172.507812 C 162.460938 171.628906 161.75 170.914062 160.875 170.914062 L 153.785156 170.914062 C 152.910156 170.914062 152.199219 171.628906 152.199219 172.507812 Z M 152.199219 172.507812 " fill-opacity="1" fill-rule="nonzero"/><path fill="#000000" d="M 160.878906 174.953125 L 153.785156 174.953125 C 152.445312 174.953125 151.351562 173.855469 151.351562 172.507812 C 151.351562 171.160156 152.445312 170.0625 153.785156 170.0625 L 160.875 170.0625 C 162.21875 170.0625 163.308594 171.160156 163.308594 172.507812 C 163.308594 173.855469 162.21875 174.953125 160.878906 174.953125 Z M 153.785156 171.765625 C 153.378906 171.765625 153.046875 172.101562 153.046875 172.507812 C 153.046875 172.917969 153.378906 173.25 153.785156 173.25 L 160.875 173.25 C 161.28125 173.25 161.613281 172.917969 161.613281 172.507812 C 161.613281 172.101562 161.28125 171.765625 160.875 171.765625 Z M 153.785156 171.765625 " fill-opacity="1" fill-rule="nonzero"/><path fill="#f5faff" d="M 151.589844 175.695312 C 151.589844 176.574219 152.300781 177.285156 153.175781 177.285156 L 160.269531 177.285156 C 161.140625 177.285156 161.851562 176.574219 161.851562 175.695312 C 161.851562 174.8125 161.140625 174.101562 160.269531 174.101562 L 153.175781 174.101562 C 152.300781 174.101562 151.589844 174.8125 151.589844 175.695312 Z M 151.589844 175.695312 " fill-opacity="1" fill-rule="nonzero"/><g clip-path="url(#adb0f8a6f3)"><path fill="#000000" d="M 160.269531 178.140625 L 153.175781 178.140625 C 151.835938 178.140625 150.742188 177.042969 150.742188 175.695312 C 150.742188 174.34375 151.835938 173.25 153.175781 173.25 L 160.269531 173.25 C 161.609375 173.25 162.699219 174.34375 162.699219 175.695312 C 162.699219 177.042969 161.609375 178.140625 160.269531 178.140625 Z M 153.175781 174.953125 C 152.769531 174.953125 152.4375 175.285156 152.4375 175.695312 C 152.4375 176.101562 152.769531 176.433594 153.175781 176.433594 L 160.269531 176.433594 C 160.675781 176.433594 161.003906 176.101562 161.003906 175.695312 C 161.003906 175.285156 160.671875 174.953125 160.269531 174.953125 Z M 153.175781 174.953125 " fill-opacity="1" fill-rule="nonzero"/></g><path fill="#f5faff" d="M 151.152344 178.878906 C 151.152344 179.757812 151.859375 180.472656 152.734375 180.472656 L 159.828125 180.472656 C 160.703125 180.472656 161.410156 179.757812 161.410156 178.878906 C 161.410156 178 160.703125 177.285156 159.828125 177.285156 L 152.734375 177.285156 C 151.859375 177.285156 151.152344 178 151.152344 178.878906 Z M 151.152344 178.878906 " fill-opacity="1" fill-rule="nonzero"/><g clip-path="url(#52e5d0f313)"><path fill="#000000" d="M 159.828125 181.324219 L 152.734375 181.324219 C 151.394531 181.324219 150.304688 180.226562 150.304688 178.878906 C 150.304688 177.53125 151.394531 176.433594 152.734375 176.433594 L 159.828125 176.433594 C 161.167969 176.433594 162.257812 177.53125 162.257812 178.878906 C 162.257812 180.226562 161.167969 181.324219 159.828125 181.324219 Z M 152.734375 178.140625 C 152.328125 178.140625 152 178.472656 152 178.878906 C 152 179.289062 152.328125 179.621094 152.734375 179.621094 L 159.828125 179.621094 C 160.234375 179.621094 160.566406 179.289062 160.566406 178.878906 C 160.566406 178.472656 160.234375 178.140625 159.828125 178.140625 Z M 152.734375 178.140625 " fill-opacity="1" fill-rule="nonzero"/></g><g fill="#000000" fill-opacity="1"><g transform="translate(70.862255, 182.549988)"><g><path d="M 8.765625 -6.484375 C 9.492188 -6.328125 10.082031 -5.960938 10.53125 -5.390625 C 10.976562 -4.816406 11.203125 -4.164062 11.203125 -3.4375 C 11.203125 -2.382812 10.832031 -1.546875 10.09375 -0.921875 C 9.351562 -0.304688 8.320312 0 7 0 L 1.109375 0 L 1.109375 -12.640625 L 6.796875 -12.640625 C 8.085938 -12.640625 9.09375 -12.34375 9.8125 -11.75 C 10.539062 -11.164062 10.90625 -10.367188 10.90625 -9.359375 C 10.90625 -8.617188 10.707031 -8 10.3125 -7.5 C 9.925781 -7.007812 9.410156 -6.671875 8.765625 -6.484375 Z M 4.1875 -7.53125 L 6.203125 -7.53125 C 6.710938 -7.53125 7.101562 -7.640625 7.375 -7.859375 C 7.644531 -8.078125 7.78125 -8.40625 7.78125 -8.84375 C 7.78125 -9.269531 7.644531 -9.597656 7.375 -9.828125 C 7.101562 -10.054688 6.710938 -10.171875 6.203125 -10.171875 L 4.1875 -10.171875 Z M 6.46875 -2.484375 C 6.976562 -2.484375 7.375 -2.597656 7.65625 -2.828125 C 7.9375 -3.066406 8.078125 -3.410156 8.078125 -3.859375 C 8.078125 -4.296875 7.929688 -4.640625 7.640625 -4.890625 C 7.347656 -5.148438 6.941406 -5.28125 6.421875 -5.28125 L 4.1875 -5.28125 L 4.1875 -2.484375 Z M 6.46875 -2.484375 "/></g></g></g><g fill="#000000" fill-opacity="1"><g transform="translate(86.774215, 182.549988)"><g><path d="M 8.984375 -2.234375 L 4.265625 -2.234375 L 3.515625 0 L 0.28125 0 L 4.859375 -12.640625 L 8.421875 -12.640625 L 13 0 L 9.734375 0 Z M 8.1875 -4.609375 L 6.625 -9.234375 L 5.078125 -4.609375 Z M 8.1875 -4.609375 "/></g></g></g><g fill="#000000" fill-opacity="1"><g transform="translate(104.09017, 182.549988)"><g><path d="M 0.59375 -6.34375 C 0.59375 -7.582031 0.863281 -8.691406 1.40625 -9.671875 C 1.945312 -10.648438 2.695312 -11.410156 3.65625 -11.953125 C 4.625 -12.503906 5.722656 -12.78125 6.953125 -12.78125 C 8.453125 -12.78125 9.734375 -12.382812 10.796875 -11.59375 C 11.867188 -10.800781 12.582031 -9.722656 12.9375 -8.359375 L 9.5625 -8.359375 C 9.3125 -8.878906 8.953125 -9.273438 8.484375 -9.546875 C 8.023438 -9.828125 7.5 -9.96875 6.90625 -9.96875 C 5.957031 -9.96875 5.1875 -9.632812 4.59375 -8.96875 C 4.007812 -8.3125 3.71875 -7.4375 3.71875 -6.34375 C 3.71875 -5.238281 4.007812 -4.351562 4.59375 -3.6875 C 5.1875 -3.03125 5.957031 -2.703125 6.90625 -2.703125 C 7.5 -2.703125 8.023438 -2.835938 8.484375 -3.109375 C 8.953125 -3.390625 9.3125 -3.789062 9.5625 -4.3125 L 12.9375 -4.3125 C 12.582031 -2.945312 11.867188 -1.867188 10.796875 -1.078125 C 9.734375 -0.296875 8.453125 0.09375 6.953125 0.09375 C 5.722656 0.09375 4.625 -0.175781 3.65625 -0.71875 C 2.695312 -1.269531 1.945312 -2.03125 1.40625 -3 C 0.863281 -3.976562 0.59375 -5.09375 0.59375 -6.34375 Z M 0.59375 -6.34375 "/></g></g></g><g fill="#000000" fill-opacity="1"><g transform="translate(121.856128, 182.549988)"><g><path d="M 8.984375 -2.234375 L 4.265625 -2.234375 L 3.515625 0 L 0.28125 0 L 4.859375 -12.640625 L 8.421875 -12.640625 L 13 0 L 9.734375 0 Z M 8.1875 -4.609375 L 6.625 -9.234375 L 5.078125 -4.609375 Z M 8.1875 -4.609375 "/></g></g></g><g fill="#000000" fill-opacity="1"><g transform="translate(239.340078, 182.549988)"><g><path d="M 11.953125 -12.640625 L 7.578125 -4.171875 L 7.578125 0 L 4.5 0 L 4.5 -4.171875 L 0.125 -12.640625 L 3.625 -12.640625 L 6.0625 -7.34375 L 8.5 -12.640625 Z M 11.953125 -12.640625 "/></g></g></g><g fill="#000000" fill-opacity="1"><g transform="translate(255.468045, 182.549988)"><g><path d="M 4.140625 -12.640625 L 4.140625 -5.078125 C 4.140625 -4.316406 4.320312 -3.734375 4.6875 -3.328125 C 5.0625 -2.921875 5.613281 -2.71875 6.34375 -2.71875 C 7.0625 -2.71875 7.609375 -2.921875 7.984375 -3.328125 C 8.367188 -3.734375 8.5625 -4.316406 8.5625 -5.078125 L 8.5625 -12.640625 L 11.640625 -12.640625 L 11.640625 -5.09375 C 11.640625 -3.96875 11.398438 -3.015625 10.921875 -2.234375 C 10.441406 -1.453125 9.796875 -0.863281 8.984375 -0.46875 C 8.179688 -0.0703125 7.28125 0.125 6.28125 0.125 C 5.28125 0.125 4.390625 -0.0664062 3.609375 -0.453125 C 2.828125 -0.847656 2.207031 -1.4375 1.75 -2.21875 C 1.289062 -3.007812 1.0625 -3.96875 1.0625 -5.09375 L 1.0625 -12.640625 Z M 4.140625 -12.640625 "/></g></g></g><g fill="#000000" fill-opacity="1"><g transform="translate(272.208008, 182.549988)"><g><path d="M 8.4375 0 L 4.1875 -5.578125 L 4.1875 0 L 1.109375 0 L 1.109375 -12.640625 L 4.1875 -12.640625 L 4.1875 -7.09375 L 8.40625 -12.640625 L 12.03125 -12.640625 L 7.125 -6.4375 L 12.203125 0 Z M 8.4375 0 "/></g></g></g></svg>